# xmcd
#
# Track frame offsets: 
#        150
#        11117
#        24335
#        33885
#        45775
#        55340
#        67335
#        81677
#        91532
#        100922
#        110067
#        122355
#        132470
#        145312
#        158722
#        169167
#        180567
#        191777
#        202817
#        213780
#        225455
#        238427
#        248782
#        260557
#        272312
#        283942
#        297675
#        311105
#        321635
#        330617
#        342737
#
# Disc length: 4706 seconds
#
# Revision: 2
# Processed by: cddbd v1.5.2PL0 Copyright (c) Steve Scherf et al.
# Submitted via: ExactAudioCopy v1.3
#
DISCID=da12601f
DTITLE=Wynn Stewart - Wishful Thinking_CD04
DYEAR=2000
DGENRE=Country
TTITLE0=That's The Only Way To Cry
TTITLE1=Out There In Your World
TTITLE2=Love's Gonna Happen To Me
TTITLE3=I Won't Live That Long
TTITLE4=Spittin' Guitar (Instrumental)
TTITLE5=Down Came The World
TTITLE6=Mama's Gone Home
TTITLE7=In Love
TTITLE8=Above And Beyond
TTITLE9=Big, Big Love (Make Big Love)
TTITLE10=Waltz Of The Angels
TTITLE11=Loversville
TTITLE12=It's So Cold In Your House And Lonesome In Mine
TTITLE13=Orange Blossom Special (Instrumental)
TTITLE14=Daddy's Girl
TTITLE15=Sing The Same Song
TTITLE16=You're That Someone Else
TTITLE17=Fresh Out Of Love
TTITLE18=Something Pretty
TTITLE19=She Didn't Color Daddy
TTITLE20=Good Old Fashioned Love
TTITLE21=If Tomorrow Could Be Yesterday
TTITLE22=One More Memory
TTITLE23=My Own Little World
TTITLE24=Built-In Love
TTITLE25=This Cold War With You
TTITLE26=It's Too Much Like Lonesome
TTITLE27=Your Stepping Stone
TTITLE28=Man, Man, Mr Sandman
TTITLE29=An Arm's Length From You
TTITLE30=Why Didn't I Write That Song
EXTD=
EXTT0=
EXTT1=
EXTT2=
EXTT3=
EXTT4=
EXTT5=
EXTT6=
EXTT7=
EXTT8=
EXTT9=
EXTT10=
EXTT11=
EXTT12=
EXTT13=
EXTT14=
EXTT15=
EXTT16=
EXTT17=
EXTT18=
EXTT19=
EXTT20=
EXTT21=
EXTT22=
EXTT23=
EXTT24=
EXTT25=
EXTT26=
EXTT27=
EXTT28=
EXTT29=
EXTT30=
PLAYORDER=
